M48
; DRILL file {KiCad (6.0.1)} date Wed Jun  1 15:29:55 2022
; FORMAT={-:-/ absolute / metric / decimal}
; #@! TF.CreationDate,2022-06-01T15:29:55+03:00
; #@! TF.GenerationSoftware,Kicad,Pcbnew,(6.0.1)
; #@! TF.FileFunction,Plated,1,2,PTH
FMAT,2
METRIC
; #@! TA.AperFunction,Plated,PTH,ViaDrill
T1C0.400
; #@! TA.AperFunction,Plated,PTH,ComponentDrill
T2C0.800
; #@! TA.AperFunction,Plated,PTH,ComponentDrill
T3C1.000
; #@! TA.AperFunction,Plated,PTH,ComponentDrill
T4C1.020
%
G90
G05
T1
X43.688Y-55.118
X43.688Y-56.642
X43.688Y-58.166
X45.212Y-55.118
X57.658Y-69.342
X59.427Y-27.949
X65.532Y-27.94
X71.374Y-27.94
X75.438Y-65.786
X75.438Y-67.056
X75.438Y-68.326
X77.715Y-27.931
X85.598Y-49.784
X85.598Y-51.054
X85.598Y-66.294
X85.598Y-67.31
T2
X51.746Y-43.688
X51.746Y-58.928
X54.286Y-43.688
X54.286Y-58.928
X69.526Y-43.688
X69.526Y-58.928
X74.606Y-43.688
X74.606Y-58.928
T3
X61.375Y-64.032
X63.915Y-64.032
X68.995Y-64.032
X71.565Y-64.032
X74.075Y-64.032
X93.726Y-44.704
X93.726Y-47.244
X93.726Y-49.784
X93.726Y-60.96
X93.726Y-63.5
X93.726Y-66.04
T4
X48.284Y-34.589
X48.284Y-37.589
X51.284Y-34.589
X51.284Y-37.589
X89.432Y-34.589
X89.432Y-37.589
X92.432Y-34.589
X92.432Y-37.589
X101.878Y-34.589
X101.878Y-37.589
X104.878Y-34.589
X104.878Y-37.589
X113.308Y-34.589
X113.308Y-37.589
X116.308Y-34.589
X116.308Y-37.589
X124.738Y-34.589
X124.738Y-37.589
X127.738Y-34.589
X127.738Y-37.589
X136.676Y-34.589
X136.676Y-37.589
X139.676Y-34.589
X139.676Y-37.589
X148.638Y-34.634
X148.638Y-37.634
X151.638Y-34.634
X151.638Y-37.634
T0
M30
